<svg xmlns="http://www.w3.org/2000/svg" width="12" height="10" viewBox="0 0 12 10">
  <metadata><?xpacket begin="﻿" id="W5M0MpCehiHzreSzNTczkc9d"?>
<x:xmpmeta xmlns:x="adobe:ns:meta/" x:xmptk="Adobe XMP Core 5.6-c142 79.160924, 2017/07/13-01:06:39        ">
   <rdf:RDF xmlns:rdf="http://www.w3.org/1999/02/22-rdf-syntax-ns#">
      <rdf:Description rdf:about=""/>
   </rdf:RDF>
</x:xmpmeta>
                                                                                                    
                                                                                                    
                                                                                                    
                                                                                                    
                                                                                                    
                                                                                                    
                                                                                                    
                                                                                                    
                                                                                                    
                                                                                                    
                                                                                                    
                                                                                                    
                                                                                                    
                                                                                                    
                                                                                                    
                                                                                                    
                                                                                                    
                                                                                                    
                                                                                                    
                                                                                                    
                           
<?xpacket end="w"?></metadata>
<defs>
    <style>
      .cls-1 {
        fill: #e59098;
        fill-rule: evenodd;
      }
    </style>
  </defs>
  <path id="Heart_Favorite_small" data-name="Heart / Favorite small" class="cls-1" d="M1358.47,4049.75s-4.09-3.26-4.74-4.39a3.417,3.417,0,0,1-.63-2.86,3.511,3.511,0,0,1,.98-1.76,2.86,2.86,0,0,1,1.98-.72c2.32,0,2.36,1.3,2.36,1.3a0.52,0.52,0,0,0,.98-0.03,3.283,3.283,0,0,1,2.5-1.29,3.051,3.051,0,0,1,2.04.75,3.561,3.561,0,0,1,.97,1.75,3.452,3.452,0,0,1-.63,2.86c-0.65,1.13-4.74,4.39-4.74,4.39A0.7,0.7,0,0,1,1358.47,4049.75Z" transform="translate(-1353 -4040)"/>
</svg>
