<svg xmlns="http://www.w3.org/2000/svg" width="10.03" height="10.06" viewBox="0 0 10.03 10.06">
  <metadata><?xpacket begin="﻿" id="W5M0MpCehiHzreSzNTczkc9d"?>
<x:xmpmeta xmlns:x="adobe:ns:meta/" x:xmptk="Adobe XMP Core 5.6-c142 79.160924, 2017/07/13-01:06:39        ">
   <rdf:RDF xmlns:rdf="http://www.w3.org/1999/02/22-rdf-syntax-ns#">
      <rdf:Description rdf:about=""/>
   </rdf:RDF>
</x:xmpmeta>
                                                                                                    
                                                                                                    
                                                                                                    
                                                                                                    
                                                                                                    
                                                                                                    
                                                                                                    
                                                                                                    
                                                                                                    
                                                                                                    
                                                                                                    
                                                                                                    
                                                                                                    
                                                                                                    
                                                                                                    
                                                                                                    
                                                                                                    
                                                                                                    
                                                                                                    
                                                                                                    
                           
<?xpacket end="w"?></metadata>
<defs>
    <style>
      .cls-1 {
        fill: #fff;
        fill-rule: evenodd;
      }
    </style>
  </defs>
  <path id="Phone" class="cls-1" d="M1035,5274a1,1,0,0,1-1-1v-1a0.993,0.993,0,0,1,.59-0.91l-0.72.07a0.706,0.706,0,0,0-.67-0.68c-0.81.05-3.96-.13-4.5,0.05a1.112,1.112,0,0,0-.63,1.13l-0.14.02a0.876,0.876,0,0,1,.07.32v1a1,1,0,0,1-2,0v-1a0.9,0.9,0,0,1,.03-0.16h0a0.978,0.978,0,0,1,.09-0.29c0.42-1.33,2.39-2.29,2.96-2.43a10.721,10.721,0,0,1,2.29-.18,14.426,14.426,0,0,0,1.52.1c1.06-.04,3.11,1.93,3.11,1.93l-0.8.07a0.986,0.986,0,0,1,.8.96v1A1,1,0,0,1,1035,5274Zm-8.3,3.06a23.688,23.688,0,0,1,3.11-3.21c1.33-.98,2.19-0.09,5.34,3.18a0.986,0.986,0,0,1,.83.85c0.02,0.02.03,0.04,0.05,0.06h-0.04c0,0.02.01,0.04,0.01,0.06a1,1,0,0,1-1,1h-8a1,1,0,0,1-1-1A0.99,0.99,0,0,1,1026.7,5277.06Zm4.18,0.53a1.305,1.305,0,1,0-1.31-1.31A1.306,1.306,0,0,0,1030.88,5277.59Z" transform="translate(-1026 -5268.94)"/>
</svg>
